# xmcd
#
# Track frame offsets: 
#        150
#        43042
#        60477
#        86930
#        117745
#        153635
#
# Disc length: 2442 seconds
#
# Revision: 4
# Processed by: cddbd v1.5.2PL0 Copyright (c) Steve Scherf et al.
# Submitted via: ExactAudioCopy v0.95b4
#
DISCID=52098806
DTITLE=Zapp - Zapp
DYEAR=1980
DGENRE=Funk
TTITLE0=More Bounce To The Ounce
TTITLE1=Freedom
TTITLE2=Brand New Player
TTITLE3=Funky Bounce
TTITLE4=Be Alright
TTITLE5=Coming Home
EXTD=Trading full MP3 albums\nmagus3042@yahoo.com
EXTT0=
EXTT1=
EXTT2=
EXTT3=
EXTT4=
EXTT5=
PLAYORDER=
